<svg xmlns="http://www.w3.org/2000/svg" viewBox="0 0 280 280" role="img" aria-label="plures grid plus symbol"><rect x="8.0" y="17.0" width="24" height="6" fill="#0F172A"/>
<rect x="17.0" y="8.0" width="6" height="24" fill="#0F172A"/>
<rect x="48.0" y="17.0" width="24" height="6" fill="#0F172A"/>
<rect x="57.0" y="8.0" width="6" height="24" fill="#0F172A"/>
<rect x="88.0" y="17.0" width="24" height="6" fill="#0F172A"/>
<rect x="97.0" y="8.0" width="6" height="24" fill="#0F172A"/>
<rect x="128.0" y="17.0" width="24" height="6" fill="#64748B"/>
<rect x="137.0" y="8.0" width="6" height="24" fill="#64748B"/>
<rect x="168.0" y="17.0" width="24" height="6" fill="#0F172A"/>
<rect x="177.0" y="8.0" width="6" height="24" fill="#0F172A"/>
<rect x="208.0" y="17.0" width="24" height="6" fill="#0F172A"/>
<rect x="217.0" y="8.0" width="6" height="24" fill="#0F172A"/>
<rect x="248.0" y="17.0" width="24" height="6" fill="#0F172A"/>
<rect x="257.0" y="8.0" width="6" height="24" fill="#0F172A"/>
<rect x="8.0" y="57.0" width="24" height="6" fill="#0F172A"/>
<rect x="17.0" y="48.0" width="6" height="24" fill="#0F172A"/>
<rect x="48.0" y="57.0" width="24" height="6" fill="#0F172A"/>
<rect x="57.0" y="48.0" width="6" height="24" fill="#0F172A"/>
<rect x="88.0" y="57.0" width="24" height="6" fill="#0F172A"/>
<rect x="97.0" y="48.0" width="6" height="24" fill="#0F172A"/>
<rect x="128.0" y="57.0" width="24" height="6" fill="#64748B"/>
<rect x="137.0" y="48.0" width="6" height="24" fill="#64748B"/>
<rect x="168.0" y="57.0" width="24" height="6" fill="#0F172A"/>
<rect x="177.0" y="48.0" width="6" height="24" fill="#0F172A"/>
<rect x="208.0" y="57.0" width="24" height="6" fill="#0F172A"/>
<rect x="217.0" y="48.0" width="6" height="24" fill="#0F172A"/>
<rect x="248.0" y="57.0" width="24" height="6" fill="#0F172A"/>
<rect x="257.0" y="48.0" width="6" height="24" fill="#0F172A"/>
<rect x="8.0" y="97.0" width="24" height="6" fill="#0F172A"/>
<rect x="17.0" y="88.0" width="6" height="24" fill="#0F172A"/>
<rect x="48.0" y="97.0" width="24" height="6" fill="#0F172A"/>
<rect x="57.0" y="88.0" width="6" height="24" fill="#0F172A"/>
<rect x="88.0" y="97.0" width="24" height="6" fill="#0F172A"/>
<rect x="97.0" y="88.0" width="6" height="24" fill="#0F172A"/>
<rect x="128.0" y="97.0" width="24" height="6" fill="#64748B"/>
<rect x="137.0" y="88.0" width="6" height="24" fill="#64748B"/>
<rect x="168.0" y="97.0" width="24" height="6" fill="#0F172A"/>
<rect x="177.0" y="88.0" width="6" height="24" fill="#0F172A"/>
<rect x="208.0" y="97.0" width="24" height="6" fill="#0F172A"/>
<rect x="217.0" y="88.0" width="6" height="24" fill="#0F172A"/>
<rect x="248.0" y="97.0" width="24" height="6" fill="#0F172A"/>
<rect x="257.0" y="88.0" width="6" height="24" fill="#0F172A"/>
<rect x="8.0" y="137.0" width="24" height="6" fill="#64748B"/>
<rect x="17.0" y="128.0" width="6" height="24" fill="#64748B"/>
<rect x="48.0" y="137.0" width="24" height="6" fill="#64748B"/>
<rect x="57.0" y="128.0" width="6" height="24" fill="#64748B"/>
<rect x="88.0" y="137.0" width="24" height="6" fill="#64748B"/>
<rect x="97.0" y="128.0" width="6" height="24" fill="#64748B"/>
<rect x="128.0" y="137.0" width="24" height="6" fill="#64748B"/>
<rect x="137.0" y="128.0" width="6" height="24" fill="#64748B"/>
<rect x="168.0" y="137.0" width="24" height="6" fill="#64748B"/>
<rect x="177.0" y="128.0" width="6" height="24" fill="#64748B"/>
<rect x="208.0" y="137.0" width="24" height="6" fill="#64748B"/>
<rect x="217.0" y="128.0" width="6" height="24" fill="#64748B"/>
<rect x="248.0" y="137.0" width="24" height="6" fill="#64748B"/>
<rect x="257.0" y="128.0" width="6" height="24" fill="#64748B"/>
<rect x="8.0" y="177.0" width="24" height="6" fill="#0F172A"/>
<rect x="17.0" y="168.0" width="6" height="24" fill="#0F172A"/>
<rect x="48.0" y="177.0" width="24" height="6" fill="#0F172A"/>
<rect x="57.0" y="168.0" width="6" height="24" fill="#0F172A"/>
<rect x="88.0" y="177.0" width="24" height="6" fill="#0F172A"/>
<rect x="97.0" y="168.0" width="6" height="24" fill="#0F172A"/>
<rect x="128.0" y="177.0" width="24" height="6" fill="#64748B"/>
<rect x="137.0" y="168.0" width="6" height="24" fill="#64748B"/>
<rect x="168.0" y="177.0" width="24" height="6" fill="#0F172A"/>
<rect x="177.0" y="168.0" width="6" height="24" fill="#0F172A"/>
<rect x="208.0" y="177.0" width="24" height="6" fill="#0F172A"/>
<rect x="217.0" y="168.0" width="6" height="24" fill="#0F172A"/>
<rect x="248.0" y="177.0" width="24" height="6" fill="#0F172A"/>
<rect x="257.0" y="168.0" width="6" height="24" fill="#0F172A"/>
<rect x="8.0" y="217.0" width="24" height="6" fill="#0F172A"/>
<rect x="17.0" y="208.0" width="6" height="24" fill="#0F172A"/>
<rect x="48.0" y="217.0" width="24" height="6" fill="#0F172A"/>
<rect x="57.0" y="208.0" width="6" height="24" fill="#0F172A"/>
<rect x="88.0" y="217.0" width="24" height="6" fill="#0F172A"/>
<rect x="97.0" y="208.0" width="6" height="24" fill="#0F172A"/>
<rect x="128.0" y="217.0" width="24" height="6" fill="#64748B"/>
<rect x="137.0" y="208.0" width="6" height="24" fill="#64748B"/>
<rect x="168.0" y="217.0" width="24" height="6" fill="#0F172A"/>
<rect x="177.0" y="208.0" width="6" height="24" fill="#0F172A"/>
<rect x="208.0" y="217.0" width="24" height="6" fill="#0F172A"/>
<rect x="217.0" y="208.0" width="6" height="24" fill="#0F172A"/>
<rect x="248.0" y="217.0" width="24" height="6" fill="#0F172A"/>
<rect x="257.0" y="208.0" width="6" height="24" fill="#0F172A"/>
<rect x="8.0" y="257.0" width="24" height="6" fill="#0F172A"/>
<rect x="17.0" y="248.0" width="6" height="24" fill="#0F172A"/>
<rect x="48.0" y="257.0" width="24" height="6" fill="#0F172A"/>
<rect x="57.0" y="248.0" width="6" height="24" fill="#0F172A"/>
<rect x="88.0" y="257.0" width="24" height="6" fill="#0F172A"/>
<rect x="97.0" y="248.0" width="6" height="24" fill="#0F172A"/>
<rect x="128.0" y="257.0" width="24" height="6" fill="#64748B"/>
<rect x="137.0" y="248.0" width="6" height="24" fill="#64748B"/>
<rect x="168.0" y="257.0" width="24" height="6" fill="#0F172A"/>
<rect x="177.0" y="248.0" width="6" height="24" fill="#0F172A"/>
<rect x="208.0" y="257.0" width="24" height="6" fill="#0F172A"/>
<rect x="217.0" y="248.0" width="6" height="24" fill="#0F172A"/>
<rect x="248.0" y="257.0" width="24" height="6" fill="#0F172A"/>
<rect x="257.0" y="248.0" width="6" height="24" fill="#0F172A"/>
</svg>