<?xml version='1.0' encoding='UTF-8'?>
<svg xmlns="http://www.w3.org/2000/svg" width="1200" height="300">
  <defs>
    <linearGradient id="gradient" x1="0%" y1="0%" x2="100%" y2="100%">
      <stop offset="0%" style="stop-color:#667eea;stop-opacity:1"/>
      <stop offset="100%" style="stop-color:#764ba2;stop-opacity:1"/>
    </linearGradient>
    <linearGradient id="textGradient" x1="0%" y1="0%" x2="100%" y2="0%">
      <stop offset="0%" style="stop-color:#ffffff;stop-opacity:1"/>
      <stop offset="100%" style="stop-color:#e0e7ff;stop-opacity:1"/>
    </linearGradient>
  </defs>
  
  <!-- Background -->
  <rect width="1200" height="300" fill="url(#gradient)"/>
  
  <!-- Decorative circles -->
  <g transform="translate(100.0,150.0) scale(0.40406101782088427) translate(-140.0,-140.0)" fill="rgba(255,255,255,0.1)" stroke="rgba(255,255,255,0.1)"><rect x="8.0" y="17.0" width="24" height="6" fill="rgba(255,255,255,0.1)" stroke="rgba(255,255,255,0.1)"/>
<rect x="17.0" y="8.0" width="6" height="24" fill="rgba(255,255,255,0.1)" stroke="rgba(255,255,255,0.1)"/>
<rect x="48.0" y="17.0" width="24" height="6" fill="rgba(255,255,255,0.1)" stroke="rgba(255,255,255,0.1)"/>
<rect x="57.0" y="8.0" width="6" height="24" fill="rgba(255,255,255,0.1)" stroke="rgba(255,255,255,0.1)"/>
<rect x="88.0" y="17.0" width="24" height="6" fill="rgba(255,255,255,0.1)" stroke="rgba(255,255,255,0.1)"/>
<rect x="97.0" y="8.0" width="6" height="24" fill="rgba(255,255,255,0.1)" stroke="rgba(255,255,255,0.1)"/>
<rect x="128.0" y="17.0" width="24" height="6" fill="rgba(255,255,255,0.1)" stroke="rgba(255,255,255,0.1)"/>
<rect x="137.0" y="8.0" width="6" height="24" fill="rgba(255,255,255,0.1)" stroke="rgba(255,255,255,0.1)"/>
<rect x="168.0" y="17.0" width="24" height="6" fill="rgba(255,255,255,0.1)" stroke="rgba(255,255,255,0.1)"/>
<rect x="177.0" y="8.0" width="6" height="24" fill="rgba(255,255,255,0.1)" stroke="rgba(255,255,255,0.1)"/>
<rect x="208.0" y="17.0" width="24" height="6" fill="rgba(255,255,255,0.1)" stroke="rgba(255,255,255,0.1)"/>
<rect x="217.0" y="8.0" width="6" height="24" fill="rgba(255,255,255,0.1)" stroke="rgba(255,255,255,0.1)"/>
<rect x="248.0" y="17.0" width="24" height="6" fill="rgba(255,255,255,0.1)" stroke="rgba(255,255,255,0.1)"/>
<rect x="257.0" y="8.0" width="6" height="24" fill="rgba(255,255,255,0.1)" stroke="rgba(255,255,255,0.1)"/>
<rect x="8.0" y="57.0" width="24" height="6" fill="rgba(255,255,255,0.1)" stroke="rgba(255,255,255,0.1)"/>
<rect x="17.0" y="48.0" width="6" height="24" fill="rgba(255,255,255,0.1)" stroke="rgba(255,255,255,0.1)"/>
<rect x="48.0" y="57.0" width="24" height="6" fill="rgba(255,255,255,0.1)" stroke="rgba(255,255,255,0.1)"/>
<rect x="57.0" y="48.0" width="6" height="24" fill="rgba(255,255,255,0.1)" stroke="rgba(255,255,255,0.1)"/>
<rect x="88.0" y="57.0" width="24" height="6" fill="rgba(255,255,255,0.1)" stroke="rgba(255,255,255,0.1)"/>
<rect x="97.0" y="48.0" width="6" height="24" fill="rgba(255,255,255,0.1)" stroke="rgba(255,255,255,0.1)"/>
<rect x="128.0" y="57.0" width="24" height="6" fill="rgba(255,255,255,0.1)" stroke="rgba(255,255,255,0.1)"/>
<rect x="137.0" y="48.0" width="6" height="24" fill="rgba(255,255,255,0.1)" stroke="rgba(255,255,255,0.1)"/>
<rect x="168.0" y="57.0" width="24" height="6" fill="rgba(255,255,255,0.1)" stroke="rgba(255,255,255,0.1)"/>
<rect x="177.0" y="48.0" width="6" height="24" fill="rgba(255,255,255,0.1)" stroke="rgba(255,255,255,0.1)"/>
<rect x="208.0" y="57.0" width="24" height="6" fill="rgba(255,255,255,0.1)" stroke="rgba(255,255,255,0.1)"/>
<rect x="217.0" y="48.0" width="6" height="24" fill="rgba(255,255,255,0.1)" stroke="rgba(255,255,255,0.1)"/>
<rect x="248.0" y="57.0" width="24" height="6" fill="rgba(255,255,255,0.1)" stroke="rgba(255,255,255,0.1)"/>
<rect x="257.0" y="48.0" width="6" height="24" fill="rgba(255,255,255,0.1)" stroke="rgba(255,255,255,0.1)"/>
<rect x="8.0" y="97.0" width="24" height="6" fill="rgba(255,255,255,0.1)" stroke="rgba(255,255,255,0.1)"/>
<rect x="17.0" y="88.0" width="6" height="24" fill="rgba(255,255,255,0.1)" stroke="rgba(255,255,255,0.1)"/>
<rect x="48.0" y="97.0" width="24" height="6" fill="rgba(255,255,255,0.1)" stroke="rgba(255,255,255,0.1)"/>
<rect x="57.0" y="88.0" width="6" height="24" fill="rgba(255,255,255,0.1)" stroke="rgba(255,255,255,0.1)"/>
<rect x="88.0" y="97.0" width="24" height="6" fill="rgba(255,255,255,0.1)" stroke="rgba(255,255,255,0.1)"/>
<rect x="97.0" y="88.0" width="6" height="24" fill="rgba(255,255,255,0.1)" stroke="rgba(255,255,255,0.1)"/>
<rect x="128.0" y="97.0" width="24" height="6" fill="rgba(255,255,255,0.1)" stroke="rgba(255,255,255,0.1)"/>
<rect x="137.0" y="88.0" width="6" height="24" fill="rgba(255,255,255,0.1)" stroke="rgba(255,255,255,0.1)"/>
<rect x="168.0" y="97.0" width="24" height="6" fill="rgba(255,255,255,0.1)" stroke="rgba(255,255,255,0.1)"/>
<rect x="177.0" y="88.0" width="6" height="24" fill="rgba(255,255,255,0.1)" stroke="rgba(255,255,255,0.1)"/>
<rect x="208.0" y="97.0" width="24" height="6" fill="rgba(255,255,255,0.1)" stroke="rgba(255,255,255,0.1)"/>
<rect x="217.0" y="88.0" width="6" height="24" fill="rgba(255,255,255,0.1)" stroke="rgba(255,255,255,0.1)"/>
<rect x="248.0" y="97.0" width="24" height="6" fill="rgba(255,255,255,0.1)" stroke="rgba(255,255,255,0.1)"/>
<rect x="257.0" y="88.0" width="6" height="24" fill="rgba(255,255,255,0.1)" stroke="rgba(255,255,255,0.1)"/>
<rect x="8.0" y="137.0" width="24" height="6" fill="rgba(255,255,255,0.1)" stroke="rgba(255,255,255,0.1)"/>
<rect x="17.0" y="128.0" width="6" height="24" fill="rgba(255,255,255,0.1)" stroke="rgba(255,255,255,0.1)"/>
<rect x="48.0" y="137.0" width="24" height="6" fill="rgba(255,255,255,0.1)" stroke="rgba(255,255,255,0.1)"/>
<rect x="57.0" y="128.0" width="6" height="24" fill="rgba(255,255,255,0.1)" stroke="rgba(255,255,255,0.1)"/>
<rect x="88.0" y="137.0" width="24" height="6" fill="rgba(255,255,255,0.1)" stroke="rgba(255,255,255,0.1)"/>
<rect x="97.0" y="128.0" width="6" height="24" fill="rgba(255,255,255,0.1)" stroke="rgba(255,255,255,0.1)"/>
<rect x="128.0" y="137.0" width="24" height="6" fill="rgba(255,255,255,0.1)" stroke="rgba(255,255,255,0.1)"/>
<rect x="137.0" y="128.0" width="6" height="24" fill="rgba(255,255,255,0.1)" stroke="rgba(255,255,255,0.1)"/>
<rect x="168.0" y="137.0" width="24" height="6" fill="rgba(255,255,255,0.1)" stroke="rgba(255,255,255,0.1)"/>
<rect x="177.0" y="128.0" width="6" height="24" fill="rgba(255,255,255,0.1)" stroke="rgba(255,255,255,0.1)"/>
<rect x="208.0" y="137.0" width="24" height="6" fill="rgba(255,255,255,0.1)" stroke="rgba(255,255,255,0.1)"/>
<rect x="217.0" y="128.0" width="6" height="24" fill="rgba(255,255,255,0.1)" stroke="rgba(255,255,255,0.1)"/>
<rect x="248.0" y="137.0" width="24" height="6" fill="rgba(255,255,255,0.1)" stroke="rgba(255,255,255,0.1)"/>
<rect x="257.0" y="128.0" width="6" height="24" fill="rgba(255,255,255,0.1)" stroke="rgba(255,255,255,0.1)"/>
<rect x="8.0" y="177.0" width="24" height="6" fill="rgba(255,255,255,0.1)" stroke="rgba(255,255,255,0.1)"/>
<rect x="17.0" y="168.0" width="6" height="24" fill="rgba(255,255,255,0.1)" stroke="rgba(255,255,255,0.1)"/>
<rect x="48.0" y="177.0" width="24" height="6" fill="rgba(255,255,255,0.1)" stroke="rgba(255,255,255,0.1)"/>
<rect x="57.0" y="168.0" width="6" height="24" fill="rgba(255,255,255,0.1)" stroke="rgba(255,255,255,0.1)"/>
<rect x="88.0" y="177.0" width="24" height="6" fill="rgba(255,255,255,0.1)" stroke="rgba(255,255,255,0.1)"/>
<rect x="97.0" y="168.0" width="6" height="24" fill="rgba(255,255,255,0.1)" stroke="rgba(255,255,255,0.1)"/>
<rect x="128.0" y="177.0" width="24" height="6" fill="rgba(255,255,255,0.1)" stroke="rgba(255,255,255,0.1)"/>
<rect x="137.0" y="168.0" width="6" height="24" fill="rgba(255,255,255,0.1)" stroke="rgba(255,255,255,0.1)"/>
<rect x="168.0" y="177.0" width="24" height="6" fill="rgba(255,255,255,0.1)" stroke="rgba(255,255,255,0.1)"/>
<rect x="177.0" y="168.0" width="6" height="24" fill="rgba(255,255,255,0.1)" stroke="rgba(255,255,255,0.1)"/>
<rect x="208.0" y="177.0" width="24" height="6" fill="rgba(255,255,255,0.1)" stroke="rgba(255,255,255,0.1)"/>
<rect x="217.0" y="168.0" width="6" height="24" fill="rgba(255,255,255,0.1)" stroke="rgba(255,255,255,0.1)"/>
<rect x="248.0" y="177.0" width="24" height="6" fill="rgba(255,255,255,0.1)" stroke="rgba(255,255,255,0.1)"/>
<rect x="257.0" y="168.0" width="6" height="24" fill="rgba(255,255,255,0.1)" stroke="rgba(255,255,255,0.1)"/>
<rect x="8.0" y="217.0" width="24" height="6" fill="rgba(255,255,255,0.1)" stroke="rgba(255,255,255,0.1)"/>
<rect x="17.0" y="208.0" width="6" height="24" fill="rgba(255,255,255,0.1)" stroke="rgba(255,255,255,0.1)"/>
<rect x="48.0" y="217.0" width="24" height="6" fill="rgba(255,255,255,0.1)" stroke="rgba(255,255,255,0.1)"/>
<rect x="57.0" y="208.0" width="6" height="24" fill="rgba(255,255,255,0.1)" stroke="rgba(255,255,255,0.1)"/>
<rect x="88.0" y="217.0" width="24" height="6" fill="rgba(255,255,255,0.1)" stroke="rgba(255,255,255,0.1)"/>
<rect x="97.0" y="208.0" width="6" height="24" fill="rgba(255,255,255,0.1)" stroke="rgba(255,255,255,0.1)"/>
<rect x="128.0" y="217.0" width="24" height="6" fill="rgba(255,255,255,0.1)" stroke="rgba(255,255,255,0.1)"/>
<rect x="137.0" y="208.0" width="6" height="24" fill="rgba(255,255,255,0.1)" stroke="rgba(255,255,255,0.1)"/>
<rect x="168.0" y="217.0" width="24" height="6" fill="rgba(255,255,255,0.1)" stroke="rgba(255,255,255,0.1)"/>
<rect x="177.0" y="208.0" width="6" height="24" fill="rgba(255,255,255,0.1)" stroke="rgba(255,255,255,0.1)"/>
<rect x="208.0" y="217.0" width="24" height="6" fill="rgba(255,255,255,0.1)" stroke="rgba(255,255,255,0.1)"/>
<rect x="217.0" y="208.0" width="6" height="24" fill="rgba(255,255,255,0.1)" stroke="rgba(255,255,255,0.1)"/>
<rect x="248.0" y="217.0" width="24" height="6" fill="rgba(255,255,255,0.1)" stroke="rgba(255,255,255,0.1)"/>
<rect x="257.0" y="208.0" width="6" height="24" fill="rgba(255,255,255,0.1)" stroke="rgba(255,255,255,0.1)"/>
<rect x="8.0" y="257.0" width="24" height="6" fill="rgba(255,255,255,0.1)" stroke="rgba(255,255,255,0.1)"/>
<rect x="17.0" y="248.0" width="6" height="24" fill="rgba(255,255,255,0.1)" stroke="rgba(255,255,255,0.1)"/>
<rect x="48.0" y="257.0" width="24" height="6" fill="rgba(255,255,255,0.1)" stroke="rgba(255,255,255,0.1)"/>
<rect x="57.0" y="248.0" width="6" height="24" fill="rgba(255,255,255,0.1)" stroke="rgba(255,255,255,0.1)"/>
<rect x="88.0" y="257.0" width="24" height="6" fill="rgba(255,255,255,0.1)" stroke="rgba(255,255,255,0.1)"/>
<rect x="97.0" y="248.0" width="6" height="24" fill="rgba(255,255,255,0.1)" stroke="rgba(255,255,255,0.1)"/>
<rect x="128.0" y="257.0" width="24" height="6" fill="rgba(255,255,255,0.1)" stroke="rgba(255,255,255,0.1)"/>
<rect x="137.0" y="248.0" width="6" height="24" fill="rgba(255,255,255,0.1)" stroke="rgba(255,255,255,0.1)"/>
<rect x="168.0" y="257.0" width="24" height="6" fill="rgba(255,255,255,0.1)" stroke="rgba(255,255,255,0.1)"/>
<rect x="177.0" y="248.0" width="6" height="24" fill="rgba(255,255,255,0.1)" stroke="rgba(255,255,255,0.1)"/>
<rect x="208.0" y="257.0" width="24" height="6" fill="rgba(255,255,255,0.1)" stroke="rgba(255,255,255,0.1)"/>
<rect x="217.0" y="248.0" width="6" height="24" fill="rgba(255,255,255,0.1)" stroke="rgba(255,255,255,0.1)"/>
<rect x="248.0" y="257.0" width="24" height="6" fill="rgba(255,255,255,0.1)" stroke="rgba(255,255,255,0.1)"/>
<rect x="257.0" y="248.0" width="6" height="24" fill="rgba(255,255,255,0.1)" stroke="rgba(255,255,255,0.1)"/>
</g><g transform="translate(1100.0,150.0) scale(0.3030457633656632) translate(-140.0,-140.0)" fill="rgba(255,255,255,0.08)" stroke="rgba(255,255,255,0.08)"><rect x="8.0" y="17.0" width="24" height="6" fill="rgba(255,255,255,0.08)" stroke="rgba(255,255,255,0.08)"/>
<rect x="17.0" y="8.0" width="6" height="24" fill="rgba(255,255,255,0.08)" stroke="rgba(255,255,255,0.08)"/>
<rect x="48.0" y="17.0" width="24" height="6" fill="rgba(255,255,255,0.08)" stroke="rgba(255,255,255,0.08)"/>
<rect x="57.0" y="8.0" width="6" height="24" fill="rgba(255,255,255,0.08)" stroke="rgba(255,255,255,0.08)"/>
<rect x="88.0" y="17.0" width="24" height="6" fill="rgba(255,255,255,0.08)" stroke="rgba(255,255,255,0.08)"/>
<rect x="97.0" y="8.0" width="6" height="24" fill="rgba(255,255,255,0.08)" stroke="rgba(255,255,255,0.08)"/>
<rect x="128.0" y="17.0" width="24" height="6" fill="rgba(255,255,255,0.08)" stroke="rgba(255,255,255,0.08)"/>
<rect x="137.0" y="8.0" width="6" height="24" fill="rgba(255,255,255,0.08)" stroke="rgba(255,255,255,0.08)"/>
<rect x="168.0" y="17.0" width="24" height="6" fill="rgba(255,255,255,0.08)" stroke="rgba(255,255,255,0.08)"/>
<rect x="177.0" y="8.0" width="6" height="24" fill="rgba(255,255,255,0.08)" stroke="rgba(255,255,255,0.08)"/>
<rect x="208.0" y="17.0" width="24" height="6" fill="rgba(255,255,255,0.08)" stroke="rgba(255,255,255,0.08)"/>
<rect x="217.0" y="8.0" width="6" height="24" fill="rgba(255,255,255,0.08)" stroke="rgba(255,255,255,0.08)"/>
<rect x="248.0" y="17.0" width="24" height="6" fill="rgba(255,255,255,0.08)" stroke="rgba(255,255,255,0.08)"/>
<rect x="257.0" y="8.0" width="6" height="24" fill="rgba(255,255,255,0.08)" stroke="rgba(255,255,255,0.08)"/>
<rect x="8.0" y="57.0" width="24" height="6" fill="rgba(255,255,255,0.08)" stroke="rgba(255,255,255,0.08)"/>
<rect x="17.0" y="48.0" width="6" height="24" fill="rgba(255,255,255,0.08)" stroke="rgba(255,255,255,0.08)"/>
<rect x="48.0" y="57.0" width="24" height="6" fill="rgba(255,255,255,0.08)" stroke="rgba(255,255,255,0.08)"/>
<rect x="57.0" y="48.0" width="6" height="24" fill="rgba(255,255,255,0.08)" stroke="rgba(255,255,255,0.08)"/>
<rect x="88.0" y="57.0" width="24" height="6" fill="rgba(255,255,255,0.08)" stroke="rgba(255,255,255,0.08)"/>
<rect x="97.0" y="48.0" width="6" height="24" fill="rgba(255,255,255,0.08)" stroke="rgba(255,255,255,0.08)"/>
<rect x="128.0" y="57.0" width="24" height="6" fill="rgba(255,255,255,0.08)" stroke="rgba(255,255,255,0.08)"/>
<rect x="137.0" y="48.0" width="6" height="24" fill="rgba(255,255,255,0.08)" stroke="rgba(255,255,255,0.08)"/>
<rect x="168.0" y="57.0" width="24" height="6" fill="rgba(255,255,255,0.08)" stroke="rgba(255,255,255,0.08)"/>
<rect x="177.0" y="48.0" width="6" height="24" fill="rgba(255,255,255,0.08)" stroke="rgba(255,255,255,0.08)"/>
<rect x="208.0" y="57.0" width="24" height="6" fill="rgba(255,255,255,0.08)" stroke="rgba(255,255,255,0.08)"/>
<rect x="217.0" y="48.0" width="6" height="24" fill="rgba(255,255,255,0.08)" stroke="rgba(255,255,255,0.08)"/>
<rect x="248.0" y="57.0" width="24" height="6" fill="rgba(255,255,255,0.08)" stroke="rgba(255,255,255,0.08)"/>
<rect x="257.0" y="48.0" width="6" height="24" fill="rgba(255,255,255,0.08)" stroke="rgba(255,255,255,0.08)"/>
<rect x="8.0" y="97.0" width="24" height="6" fill="rgba(255,255,255,0.08)" stroke="rgba(255,255,255,0.08)"/>
<rect x="17.0" y="88.0" width="6" height="24" fill="rgba(255,255,255,0.08)" stroke="rgba(255,255,255,0.08)"/>
<rect x="48.0" y="97.0" width="24" height="6" fill="rgba(255,255,255,0.08)" stroke="rgba(255,255,255,0.08)"/>
<rect x="57.0" y="88.0" width="6" height="24" fill="rgba(255,255,255,0.08)" stroke="rgba(255,255,255,0.08)"/>
<rect x="88.0" y="97.0" width="24" height="6" fill="rgba(255,255,255,0.08)" stroke="rgba(255,255,255,0.08)"/>
<rect x="97.0" y="88.0" width="6" height="24" fill="rgba(255,255,255,0.08)" stroke="rgba(255,255,255,0.08)"/>
<rect x="128.0" y="97.0" width="24" height="6" fill="rgba(255,255,255,0.08)" stroke="rgba(255,255,255,0.08)"/>
<rect x="137.0" y="88.0" width="6" height="24" fill="rgba(255,255,255,0.08)" stroke="rgba(255,255,255,0.08)"/>
<rect x="168.0" y="97.0" width="24" height="6" fill="rgba(255,255,255,0.08)" stroke="rgba(255,255,255,0.08)"/>
<rect x="177.0" y="88.0" width="6" height="24" fill="rgba(255,255,255,0.08)" stroke="rgba(255,255,255,0.08)"/>
<rect x="208.0" y="97.0" width="24" height="6" fill="rgba(255,255,255,0.08)" stroke="rgba(255,255,255,0.08)"/>
<rect x="217.0" y="88.0" width="6" height="24" fill="rgba(255,255,255,0.08)" stroke="rgba(255,255,255,0.08)"/>
<rect x="248.0" y="97.0" width="24" height="6" fill="rgba(255,255,255,0.08)" stroke="rgba(255,255,255,0.08)"/>
<rect x="257.0" y="88.0" width="6" height="24" fill="rgba(255,255,255,0.08)" stroke="rgba(255,255,255,0.08)"/>
<rect x="8.0" y="137.0" width="24" height="6" fill="rgba(255,255,255,0.08)" stroke="rgba(255,255,255,0.08)"/>
<rect x="17.0" y="128.0" width="6" height="24" fill="rgba(255,255,255,0.08)" stroke="rgba(255,255,255,0.08)"/>
<rect x="48.0" y="137.0" width="24" height="6" fill="rgba(255,255,255,0.08)" stroke="rgba(255,255,255,0.08)"/>
<rect x="57.0" y="128.0" width="6" height="24" fill="rgba(255,255,255,0.08)" stroke="rgba(255,255,255,0.08)"/>
<rect x="88.0" y="137.0" width="24" height="6" fill="rgba(255,255,255,0.08)" stroke="rgba(255,255,255,0.08)"/>
<rect x="97.0" y="128.0" width="6" height="24" fill="rgba(255,255,255,0.08)" stroke="rgba(255,255,255,0.08)"/>
<rect x="128.0" y="137.0" width="24" height="6" fill="rgba(255,255,255,0.08)" stroke="rgba(255,255,255,0.08)"/>
<rect x="137.0" y="128.0" width="6" height="24" fill="rgba(255,255,255,0.08)" stroke="rgba(255,255,255,0.08)"/>
<rect x="168.0" y="137.0" width="24" height="6" fill="rgba(255,255,255,0.08)" stroke="rgba(255,255,255,0.08)"/>
<rect x="177.0" y="128.0" width="6" height="24" fill="rgba(255,255,255,0.08)" stroke="rgba(255,255,255,0.08)"/>
<rect x="208.0" y="137.0" width="24" height="6" fill="rgba(255,255,255,0.08)" stroke="rgba(255,255,255,0.08)"/>
<rect x="217.0" y="128.0" width="6" height="24" fill="rgba(255,255,255,0.08)" stroke="rgba(255,255,255,0.08)"/>
<rect x="248.0" y="137.0" width="24" height="6" fill="rgba(255,255,255,0.08)" stroke="rgba(255,255,255,0.08)"/>
<rect x="257.0" y="128.0" width="6" height="24" fill="rgba(255,255,255,0.08)" stroke="rgba(255,255,255,0.08)"/>
<rect x="8.0" y="177.0" width="24" height="6" fill="rgba(255,255,255,0.08)" stroke="rgba(255,255,255,0.08)"/>
<rect x="17.0" y="168.0" width="6" height="24" fill="rgba(255,255,255,0.08)" stroke="rgba(255,255,255,0.08)"/>
<rect x="48.0" y="177.0" width="24" height="6" fill="rgba(255,255,255,0.08)" stroke="rgba(255,255,255,0.08)"/>
<rect x="57.0" y="168.0" width="6" height="24" fill="rgba(255,255,255,0.08)" stroke="rgba(255,255,255,0.08)"/>
<rect x="88.0" y="177.0" width="24" height="6" fill="rgba(255,255,255,0.08)" stroke="rgba(255,255,255,0.08)"/>
<rect x="97.0" y="168.0" width="6" height="24" fill="rgba(255,255,255,0.08)" stroke="rgba(255,255,255,0.08)"/>
<rect x="128.0" y="177.0" width="24" height="6" fill="rgba(255,255,255,0.08)" stroke="rgba(255,255,255,0.08)"/>
<rect x="137.0" y="168.0" width="6" height="24" fill="rgba(255,255,255,0.08)" stroke="rgba(255,255,255,0.08)"/>
<rect x="168.0" y="177.0" width="24" height="6" fill="rgba(255,255,255,0.08)" stroke="rgba(255,255,255,0.08)"/>
<rect x="177.0" y="168.0" width="6" height="24" fill="rgba(255,255,255,0.08)" stroke="rgba(255,255,255,0.08)"/>
<rect x="208.0" y="177.0" width="24" height="6" fill="rgba(255,255,255,0.08)" stroke="rgba(255,255,255,0.08)"/>
<rect x="217.0" y="168.0" width="6" height="24" fill="rgba(255,255,255,0.08)" stroke="rgba(255,255,255,0.08)"/>
<rect x="248.0" y="177.0" width="24" height="6" fill="rgba(255,255,255,0.08)" stroke="rgba(255,255,255,0.08)"/>
<rect x="257.0" y="168.0" width="6" height="24" fill="rgba(255,255,255,0.08)" stroke="rgba(255,255,255,0.08)"/>
<rect x="8.0" y="217.0" width="24" height="6" fill="rgba(255,255,255,0.08)" stroke="rgba(255,255,255,0.08)"/>
<rect x="17.0" y="208.0" width="6" height="24" fill="rgba(255,255,255,0.08)" stroke="rgba(255,255,255,0.08)"/>
<rect x="48.0" y="217.0" width="24" height="6" fill="rgba(255,255,255,0.08)" stroke="rgba(255,255,255,0.08)"/>
<rect x="57.0" y="208.0" width="6" height="24" fill="rgba(255,255,255,0.08)" stroke="rgba(255,255,255,0.08)"/>
<rect x="88.0" y="217.0" width="24" height="6" fill="rgba(255,255,255,0.08)" stroke="rgba(255,255,255,0.08)"/>
<rect x="97.0" y="208.0" width="6" height="24" fill="rgba(255,255,255,0.08)" stroke="rgba(255,255,255,0.08)"/>
<rect x="128.0" y="217.0" width="24" height="6" fill="rgba(255,255,255,0.08)" stroke="rgba(255,255,255,0.08)"/>
<rect x="137.0" y="208.0" width="6" height="24" fill="rgba(255,255,255,0.08)" stroke="rgba(255,255,255,0.08)"/>
<rect x="168.0" y="217.0" width="24" height="6" fill="rgba(255,255,255,0.08)" stroke="rgba(255,255,255,0.08)"/>
<rect x="177.0" y="208.0" width="6" height="24" fill="rgba(255,255,255,0.08)" stroke="rgba(255,255,255,0.08)"/>
<rect x="208.0" y="217.0" width="24" height="6" fill="rgba(255,255,255,0.08)" stroke="rgba(255,255,255,0.08)"/>
<rect x="217.0" y="208.0" width="6" height="24" fill="rgba(255,255,255,0.08)" stroke="rgba(255,255,255,0.08)"/>
<rect x="248.0" y="217.0" width="24" height="6" fill="rgba(255,255,255,0.08)" stroke="rgba(255,255,255,0.08)"/>
<rect x="257.0" y="208.0" width="6" height="24" fill="rgba(255,255,255,0.08)" stroke="rgba(255,255,255,0.08)"/>
<rect x="8.0" y="257.0" width="24" height="6" fill="rgba(255,255,255,0.08)" stroke="rgba(255,255,255,0.08)"/>
<rect x="17.0" y="248.0" width="6" height="24" fill="rgba(255,255,255,0.08)" stroke="rgba(255,255,255,0.08)"/>
<rect x="48.0" y="257.0" width="24" height="6" fill="rgba(255,255,255,0.08)" stroke="rgba(255,255,255,0.08)"/>
<rect x="57.0" y="248.0" width="6" height="24" fill="rgba(255,255,255,0.08)" stroke="rgba(255,255,255,0.08)"/>
<rect x="88.0" y="257.0" width="24" height="6" fill="rgba(255,255,255,0.08)" stroke="rgba(255,255,255,0.08)"/>
<rect x="97.0" y="248.0" width="6" height="24" fill="rgba(255,255,255,0.08)" stroke="rgba(255,255,255,0.08)"/>
<rect x="128.0" y="257.0" width="24" height="6" fill="rgba(255,255,255,0.08)" stroke="rgba(255,255,255,0.08)"/>
<rect x="137.0" y="248.0" width="6" height="24" fill="rgba(255,255,255,0.08)" stroke="rgba(255,255,255,0.08)"/>
<rect x="168.0" y="257.0" width="24" height="6" fill="rgba(255,255,255,0.08)" stroke="rgba(255,255,255,0.08)"/>
<rect x="177.0" y="248.0" width="6" height="24" fill="rgba(255,255,255,0.08)" stroke="rgba(255,255,255,0.08)"/>
<rect x="208.0" y="257.0" width="24" height="6" fill="rgba(255,255,255,0.08)" stroke="rgba(255,255,255,0.08)"/>
<rect x="217.0" y="248.0" width="6" height="24" fill="rgba(255,255,255,0.08)" stroke="rgba(255,255,255,0.08)"/>
<rect x="248.0" y="257.0" width="24" height="6" fill="rgba(255,255,255,0.08)" stroke="rgba(255,255,255,0.08)"/>
<rect x="257.0" y="248.0" width="6" height="24" fill="rgba(255,255,255,0.08)" stroke="rgba(255,255,255,0.08)"/>
</g><g transform="translate(200.0,80.0) scale(0.20203050891044214) translate(-140.0,-140.0)" fill="rgba(255,255,255,0.06)" stroke="rgba(255,255,255,0.06)"><rect x="8.0" y="17.0" width="24" height="6" fill="rgba(255,255,255,0.06)" stroke="rgba(255,255,255,0.06)"/>
<rect x="17.0" y="8.0" width="6" height="24" fill="rgba(255,255,255,0.06)" stroke="rgba(255,255,255,0.06)"/>
<rect x="48.0" y="17.0" width="24" height="6" fill="rgba(255,255,255,0.06)" stroke="rgba(255,255,255,0.06)"/>
<rect x="57.0" y="8.0" width="6" height="24" fill="rgba(255,255,255,0.06)" stroke="rgba(255,255,255,0.06)"/>
<rect x="88.0" y="17.0" width="24" height="6" fill="rgba(255,255,255,0.06)" stroke="rgba(255,255,255,0.06)"/>
<rect x="97.0" y="8.0" width="6" height="24" fill="rgba(255,255,255,0.06)" stroke="rgba(255,255,255,0.06)"/>
<rect x="128.0" y="17.0" width="24" height="6" fill="rgba(255,255,255,0.06)" stroke="rgba(255,255,255,0.06)"/>
<rect x="137.0" y="8.0" width="6" height="24" fill="rgba(255,255,255,0.06)" stroke="rgba(255,255,255,0.06)"/>
<rect x="168.0" y="17.0" width="24" height="6" fill="rgba(255,255,255,0.06)" stroke="rgba(255,255,255,0.06)"/>
<rect x="177.0" y="8.0" width="6" height="24" fill="rgba(255,255,255,0.06)" stroke="rgba(255,255,255,0.06)"/>
<rect x="208.0" y="17.0" width="24" height="6" fill="rgba(255,255,255,0.06)" stroke="rgba(255,255,255,0.06)"/>
<rect x="217.0" y="8.0" width="6" height="24" fill="rgba(255,255,255,0.06)" stroke="rgba(255,255,255,0.06)"/>
<rect x="248.0" y="17.0" width="24" height="6" fill="rgba(255,255,255,0.06)" stroke="rgba(255,255,255,0.06)"/>
<rect x="257.0" y="8.0" width="6" height="24" fill="rgba(255,255,255,0.06)" stroke="rgba(255,255,255,0.06)"/>
<rect x="8.0" y="57.0" width="24" height="6" fill="rgba(255,255,255,0.06)" stroke="rgba(255,255,255,0.06)"/>
<rect x="17.0" y="48.0" width="6" height="24" fill="rgba(255,255,255,0.06)" stroke="rgba(255,255,255,0.06)"/>
<rect x="48.0" y="57.0" width="24" height="6" fill="rgba(255,255,255,0.06)" stroke="rgba(255,255,255,0.06)"/>
<rect x="57.0" y="48.0" width="6" height="24" fill="rgba(255,255,255,0.06)" stroke="rgba(255,255,255,0.06)"/>
<rect x="88.0" y="57.0" width="24" height="6" fill="rgba(255,255,255,0.06)" stroke="rgba(255,255,255,0.06)"/>
<rect x="97.0" y="48.0" width="6" height="24" fill="rgba(255,255,255,0.06)" stroke="rgba(255,255,255,0.06)"/>
<rect x="128.0" y="57.0" width="24" height="6" fill="rgba(255,255,255,0.06)" stroke="rgba(255,255,255,0.06)"/>
<rect x="137.0" y="48.0" width="6" height="24" fill="rgba(255,255,255,0.06)" stroke="rgba(255,255,255,0.06)"/>
<rect x="168.0" y="57.0" width="24" height="6" fill="rgba(255,255,255,0.06)" stroke="rgba(255,255,255,0.06)"/>
<rect x="177.0" y="48.0" width="6" height="24" fill="rgba(255,255,255,0.06)" stroke="rgba(255,255,255,0.06)"/>
<rect x="208.0" y="57.0" width="24" height="6" fill="rgba(255,255,255,0.06)" stroke="rgba(255,255,255,0.06)"/>
<rect x="217.0" y="48.0" width="6" height="24" fill="rgba(255,255,255,0.06)" stroke="rgba(255,255,255,0.06)"/>
<rect x="248.0" y="57.0" width="24" height="6" fill="rgba(255,255,255,0.06)" stroke="rgba(255,255,255,0.06)"/>
<rect x="257.0" y="48.0" width="6" height="24" fill="rgba(255,255,255,0.06)" stroke="rgba(255,255,255,0.06)"/>
<rect x="8.0" y="97.0" width="24" height="6" fill="rgba(255,255,255,0.06)" stroke="rgba(255,255,255,0.06)"/>
<rect x="17.0" y="88.0" width="6" height="24" fill="rgba(255,255,255,0.06)" stroke="rgba(255,255,255,0.06)"/>
<rect x="48.0" y="97.0" width="24" height="6" fill="rgba(255,255,255,0.06)" stroke="rgba(255,255,255,0.06)"/>
<rect x="57.0" y="88.0" width="6" height="24" fill="rgba(255,255,255,0.06)" stroke="rgba(255,255,255,0.06)"/>
<rect x="88.0" y="97.0" width="24" height="6" fill="rgba(255,255,255,0.06)" stroke="rgba(255,255,255,0.06)"/>
<rect x="97.0" y="88.0" width="6" height="24" fill="rgba(255,255,255,0.06)" stroke="rgba(255,255,255,0.06)"/>
<rect x="128.0" y="97.0" width="24" height="6" fill="rgba(255,255,255,0.06)" stroke="rgba(255,255,255,0.06)"/>
<rect x="137.0" y="88.0" width="6" height="24" fill="rgba(255,255,255,0.06)" stroke="rgba(255,255,255,0.06)"/>
<rect x="168.0" y="97.0" width="24" height="6" fill="rgba(255,255,255,0.06)" stroke="rgba(255,255,255,0.06)"/>
<rect x="177.0" y="88.0" width="6" height="24" fill="rgba(255,255,255,0.06)" stroke="rgba(255,255,255,0.06)"/>
<rect x="208.0" y="97.0" width="24" height="6" fill="rgba(255,255,255,0.06)" stroke="rgba(255,255,255,0.06)"/>
<rect x="217.0" y="88.0" width="6" height="24" fill="rgba(255,255,255,0.06)" stroke="rgba(255,255,255,0.06)"/>
<rect x="248.0" y="97.0" width="24" height="6" fill="rgba(255,255,255,0.06)" stroke="rgba(255,255,255,0.06)"/>
<rect x="257.0" y="88.0" width="6" height="24" fill="rgba(255,255,255,0.06)" stroke="rgba(255,255,255,0.06)"/>
<rect x="8.0" y="137.0" width="24" height="6" fill="rgba(255,255,255,0.06)" stroke="rgba(255,255,255,0.06)"/>
<rect x="17.0" y="128.0" width="6" height="24" fill="rgba(255,255,255,0.06)" stroke="rgba(255,255,255,0.06)"/>
<rect x="48.0" y="137.0" width="24" height="6" fill="rgba(255,255,255,0.06)" stroke="rgba(255,255,255,0.06)"/>
<rect x="57.0" y="128.0" width="6" height="24" fill="rgba(255,255,255,0.06)" stroke="rgba(255,255,255,0.06)"/>
<rect x="88.0" y="137.0" width="24" height="6" fill="rgba(255,255,255,0.06)" stroke="rgba(255,255,255,0.06)"/>
<rect x="97.0" y="128.0" width="6" height="24" fill="rgba(255,255,255,0.06)" stroke="rgba(255,255,255,0.06)"/>
<rect x="128.0" y="137.0" width="24" height="6" fill="rgba(255,255,255,0.06)" stroke="rgba(255,255,255,0.06)"/>
<rect x="137.0" y="128.0" width="6" height="24" fill="rgba(255,255,255,0.06)" stroke="rgba(255,255,255,0.06)"/>
<rect x="168.0" y="137.0" width="24" height="6" fill="rgba(255,255,255,0.06)" stroke="rgba(255,255,255,0.06)"/>
<rect x="177.0" y="128.0" width="6" height="24" fill="rgba(255,255,255,0.06)" stroke="rgba(255,255,255,0.06)"/>
<rect x="208.0" y="137.0" width="24" height="6" fill="rgba(255,255,255,0.06)" stroke="rgba(255,255,255,0.06)"/>
<rect x="217.0" y="128.0" width="6" height="24" fill="rgba(255,255,255,0.06)" stroke="rgba(255,255,255,0.06)"/>
<rect x="248.0" y="137.0" width="24" height="6" fill="rgba(255,255,255,0.06)" stroke="rgba(255,255,255,0.06)"/>
<rect x="257.0" y="128.0" width="6" height="24" fill="rgba(255,255,255,0.06)" stroke="rgba(255,255,255,0.06)"/>
<rect x="8.0" y="177.0" width="24" height="6" fill="rgba(255,255,255,0.06)" stroke="rgba(255,255,255,0.06)"/>
<rect x="17.0" y="168.0" width="6" height="24" fill="rgba(255,255,255,0.06)" stroke="rgba(255,255,255,0.06)"/>
<rect x="48.0" y="177.0" width="24" height="6" fill="rgba(255,255,255,0.06)" stroke="rgba(255,255,255,0.06)"/>
<rect x="57.0" y="168.0" width="6" height="24" fill="rgba(255,255,255,0.06)" stroke="rgba(255,255,255,0.06)"/>
<rect x="88.0" y="177.0" width="24" height="6" fill="rgba(255,255,255,0.06)" stroke="rgba(255,255,255,0.06)"/>
<rect x="97.0" y="168.0" width="6" height="24" fill="rgba(255,255,255,0.06)" stroke="rgba(255,255,255,0.06)"/>
<rect x="128.0" y="177.0" width="24" height="6" fill="rgba(255,255,255,0.06)" stroke="rgba(255,255,255,0.06)"/>
<rect x="137.0" y="168.0" width="6" height="24" fill="rgba(255,255,255,0.06)" stroke="rgba(255,255,255,0.06)"/>
<rect x="168.0" y="177.0" width="24" height="6" fill="rgba(255,255,255,0.06)" stroke="rgba(255,255,255,0.06)"/>
<rect x="177.0" y="168.0" width="6" height="24" fill="rgba(255,255,255,0.06)" stroke="rgba(255,255,255,0.06)"/>
<rect x="208.0" y="177.0" width="24" height="6" fill="rgba(255,255,255,0.06)" stroke="rgba(255,255,255,0.06)"/>
<rect x="217.0" y="168.0" width="6" height="24" fill="rgba(255,255,255,0.06)" stroke="rgba(255,255,255,0.06)"/>
<rect x="248.0" y="177.0" width="24" height="6" fill="rgba(255,255,255,0.06)" stroke="rgba(255,255,255,0.06)"/>
<rect x="257.0" y="168.0" width="6" height="24" fill="rgba(255,255,255,0.06)" stroke="rgba(255,255,255,0.06)"/>
<rect x="8.0" y="217.0" width="24" height="6" fill="rgba(255,255,255,0.06)" stroke="rgba(255,255,255,0.06)"/>
<rect x="17.0" y="208.0" width="6" height="24" fill="rgba(255,255,255,0.06)" stroke="rgba(255,255,255,0.06)"/>
<rect x="48.0" y="217.0" width="24" height="6" fill="rgba(255,255,255,0.06)" stroke="rgba(255,255,255,0.06)"/>
<rect x="57.0" y="208.0" width="6" height="24" fill="rgba(255,255,255,0.06)" stroke="rgba(255,255,255,0.06)"/>
<rect x="88.0" y="217.0" width="24" height="6" fill="rgba(255,255,255,0.06)" stroke="rgba(255,255,255,0.06)"/>
<rect x="97.0" y="208.0" width="6" height="24" fill="rgba(255,255,255,0.06)" stroke="rgba(255,255,255,0.06)"/>
<rect x="128.0" y="217.0" width="24" height="6" fill="rgba(255,255,255,0.06)" stroke="rgba(255,255,255,0.06)"/>
<rect x="137.0" y="208.0" width="6" height="24" fill="rgba(255,255,255,0.06)" stroke="rgba(255,255,255,0.06)"/>
<rect x="168.0" y="217.0" width="24" height="6" fill="rgba(255,255,255,0.06)" stroke="rgba(255,255,255,0.06)"/>
<rect x="177.0" y="208.0" width="6" height="24" fill="rgba(255,255,255,0.06)" stroke="rgba(255,255,255,0.06)"/>
<rect x="208.0" y="217.0" width="24" height="6" fill="rgba(255,255,255,0.06)" stroke="rgba(255,255,255,0.06)"/>
<rect x="217.0" y="208.0" width="6" height="24" fill="rgba(255,255,255,0.06)" stroke="rgba(255,255,255,0.06)"/>
<rect x="248.0" y="217.0" width="24" height="6" fill="rgba(255,255,255,0.06)" stroke="rgba(255,255,255,0.06)"/>
<rect x="257.0" y="208.0" width="6" height="24" fill="rgba(255,255,255,0.06)" stroke="rgba(255,255,255,0.06)"/>
<rect x="8.0" y="257.0" width="24" height="6" fill="rgba(255,255,255,0.06)" stroke="rgba(255,255,255,0.06)"/>
<rect x="17.0" y="248.0" width="6" height="24" fill="rgba(255,255,255,0.06)" stroke="rgba(255,255,255,0.06)"/>
<rect x="48.0" y="257.0" width="24" height="6" fill="rgba(255,255,255,0.06)" stroke="rgba(255,255,255,0.06)"/>
<rect x="57.0" y="248.0" width="6" height="24" fill="rgba(255,255,255,0.06)" stroke="rgba(255,255,255,0.06)"/>
<rect x="88.0" y="257.0" width="24" height="6" fill="rgba(255,255,255,0.06)" stroke="rgba(255,255,255,0.06)"/>
<rect x="97.0" y="248.0" width="6" height="24" fill="rgba(255,255,255,0.06)" stroke="rgba(255,255,255,0.06)"/>
<rect x="128.0" y="257.0" width="24" height="6" fill="rgba(255,255,255,0.06)" stroke="rgba(255,255,255,0.06)"/>
<rect x="137.0" y="248.0" width="6" height="24" fill="rgba(255,255,255,0.06)" stroke="rgba(255,255,255,0.06)"/>
<rect x="168.0" y="257.0" width="24" height="6" fill="rgba(255,255,255,0.06)" stroke="rgba(255,255,255,0.06)"/>
<rect x="177.0" y="248.0" width="6" height="24" fill="rgba(255,255,255,0.06)" stroke="rgba(255,255,255,0.06)"/>
<rect x="208.0" y="257.0" width="24" height="6" fill="rgba(255,255,255,0.06)" stroke="rgba(255,255,255,0.06)"/>
<rect x="217.0" y="248.0" width="6" height="24" fill="rgba(255,255,255,0.06)" stroke="rgba(255,255,255,0.06)"/>
<rect x="248.0" y="257.0" width="24" height="6" fill="rgba(255,255,255,0.06)" stroke="rgba(255,255,255,0.06)"/>
<rect x="257.0" y="248.0" width="6" height="24" fill="rgba(255,255,255,0.06)" stroke="rgba(255,255,255,0.06)"/>
</g><g transform="translate(1000.0,220.0) scale(0.2525381361380527) translate(-140.0,-140.0)" fill="rgba(255,255,255,0.06)" stroke="rgba(255,255,255,0.06)"><rect x="8.0" y="17.0" width="24" height="6" fill="rgba(255,255,255,0.06)" stroke="rgba(255,255,255,0.06)"/>
<rect x="17.0" y="8.0" width="6" height="24" fill="rgba(255,255,255,0.06)" stroke="rgba(255,255,255,0.06)"/>
<rect x="48.0" y="17.0" width="24" height="6" fill="rgba(255,255,255,0.06)" stroke="rgba(255,255,255,0.06)"/>
<rect x="57.0" y="8.0" width="6" height="24" fill="rgba(255,255,255,0.06)" stroke="rgba(255,255,255,0.06)"/>
<rect x="88.0" y="17.0" width="24" height="6" fill="rgba(255,255,255,0.06)" stroke="rgba(255,255,255,0.06)"/>
<rect x="97.0" y="8.0" width="6" height="24" fill="rgba(255,255,255,0.06)" stroke="rgba(255,255,255,0.06)"/>
<rect x="128.0" y="17.0" width="24" height="6" fill="rgba(255,255,255,0.06)" stroke="rgba(255,255,255,0.06)"/>
<rect x="137.0" y="8.0" width="6" height="24" fill="rgba(255,255,255,0.06)" stroke="rgba(255,255,255,0.06)"/>
<rect x="168.0" y="17.0" width="24" height="6" fill="rgba(255,255,255,0.06)" stroke="rgba(255,255,255,0.06)"/>
<rect x="177.0" y="8.0" width="6" height="24" fill="rgba(255,255,255,0.06)" stroke="rgba(255,255,255,0.06)"/>
<rect x="208.0" y="17.0" width="24" height="6" fill="rgba(255,255,255,0.06)" stroke="rgba(255,255,255,0.06)"/>
<rect x="217.0" y="8.0" width="6" height="24" fill="rgba(255,255,255,0.06)" stroke="rgba(255,255,255,0.06)"/>
<rect x="248.0" y="17.0" width="24" height="6" fill="rgba(255,255,255,0.06)" stroke="rgba(255,255,255,0.06)"/>
<rect x="257.0" y="8.0" width="6" height="24" fill="rgba(255,255,255,0.06)" stroke="rgba(255,255,255,0.06)"/>
<rect x="8.0" y="57.0" width="24" height="6" fill="rgba(255,255,255,0.06)" stroke="rgba(255,255,255,0.06)"/>
<rect x="17.0" y="48.0" width="6" height="24" fill="rgba(255,255,255,0.06)" stroke="rgba(255,255,255,0.06)"/>
<rect x="48.0" y="57.0" width="24" height="6" fill="rgba(255,255,255,0.06)" stroke="rgba(255,255,255,0.06)"/>
<rect x="57.0" y="48.0" width="6" height="24" fill="rgba(255,255,255,0.06)" stroke="rgba(255,255,255,0.06)"/>
<rect x="88.0" y="57.0" width="24" height="6" fill="rgba(255,255,255,0.06)" stroke="rgba(255,255,255,0.06)"/>
<rect x="97.0" y="48.0" width="6" height="24" fill="rgba(255,255,255,0.06)" stroke="rgba(255,255,255,0.06)"/>
<rect x="128.0" y="57.0" width="24" height="6" fill="rgba(255,255,255,0.06)" stroke="rgba(255,255,255,0.06)"/>
<rect x="137.0" y="48.0" width="6" height="24" fill="rgba(255,255,255,0.06)" stroke="rgba(255,255,255,0.06)"/>
<rect x="168.0" y="57.0" width="24" height="6" fill="rgba(255,255,255,0.06)" stroke="rgba(255,255,255,0.06)"/>
<rect x="177.0" y="48.0" width="6" height="24" fill="rgba(255,255,255,0.06)" stroke="rgba(255,255,255,0.06)"/>
<rect x="208.0" y="57.0" width="24" height="6" fill="rgba(255,255,255,0.06)" stroke="rgba(255,255,255,0.06)"/>
<rect x="217.0" y="48.0" width="6" height="24" fill="rgba(255,255,255,0.06)" stroke="rgba(255,255,255,0.06)"/>
<rect x="248.0" y="57.0" width="24" height="6" fill="rgba(255,255,255,0.06)" stroke="rgba(255,255,255,0.06)"/>
<rect x="257.0" y="48.0" width="6" height="24" fill="rgba(255,255,255,0.06)" stroke="rgba(255,255,255,0.06)"/>
<rect x="8.0" y="97.0" width="24" height="6" fill="rgba(255,255,255,0.06)" stroke="rgba(255,255,255,0.06)"/>
<rect x="17.0" y="88.0" width="6" height="24" fill="rgba(255,255,255,0.06)" stroke="rgba(255,255,255,0.06)"/>
<rect x="48.0" y="97.0" width="24" height="6" fill="rgba(255,255,255,0.06)" stroke="rgba(255,255,255,0.06)"/>
<rect x="57.0" y="88.0" width="6" height="24" fill="rgba(255,255,255,0.06)" stroke="rgba(255,255,255,0.06)"/>
<rect x="88.0" y="97.0" width="24" height="6" fill="rgba(255,255,255,0.06)" stroke="rgba(255,255,255,0.06)"/>
<rect x="97.0" y="88.0" width="6" height="24" fill="rgba(255,255,255,0.06)" stroke="rgba(255,255,255,0.06)"/>
<rect x="128.0" y="97.0" width="24" height="6" fill="rgba(255,255,255,0.06)" stroke="rgba(255,255,255,0.06)"/>
<rect x="137.0" y="88.0" width="6" height="24" fill="rgba(255,255,255,0.06)" stroke="rgba(255,255,255,0.06)"/>
<rect x="168.0" y="97.0" width="24" height="6" fill="rgba(255,255,255,0.06)" stroke="rgba(255,255,255,0.06)"/>
<rect x="177.0" y="88.0" width="6" height="24" fill="rgba(255,255,255,0.06)" stroke="rgba(255,255,255,0.06)"/>
<rect x="208.0" y="97.0" width="24" height="6" fill="rgba(255,255,255,0.06)" stroke="rgba(255,255,255,0.06)"/>
<rect x="217.0" y="88.0" width="6" height="24" fill="rgba(255,255,255,0.06)" stroke="rgba(255,255,255,0.06)"/>
<rect x="248.0" y="97.0" width="24" height="6" fill="rgba(255,255,255,0.06)" stroke="rgba(255,255,255,0.06)"/>
<rect x="257.0" y="88.0" width="6" height="24" fill="rgba(255,255,255,0.06)" stroke="rgba(255,255,255,0.06)"/>
<rect x="8.0" y="137.0" width="24" height="6" fill="rgba(255,255,255,0.06)" stroke="rgba(255,255,255,0.06)"/>
<rect x="17.0" y="128.0" width="6" height="24" fill="rgba(255,255,255,0.06)" stroke="rgba(255,255,255,0.06)"/>
<rect x="48.0" y="137.0" width="24" height="6" fill="rgba(255,255,255,0.06)" stroke="rgba(255,255,255,0.06)"/>
<rect x="57.0" y="128.0" width="6" height="24" fill="rgba(255,255,255,0.06)" stroke="rgba(255,255,255,0.06)"/>
<rect x="88.0" y="137.0" width="24" height="6" fill="rgba(255,255,255,0.06)" stroke="rgba(255,255,255,0.06)"/>
<rect x="97.0" y="128.0" width="6" height="24" fill="rgba(255,255,255,0.06)" stroke="rgba(255,255,255,0.06)"/>
<rect x="128.0" y="137.0" width="24" height="6" fill="rgba(255,255,255,0.06)" stroke="rgba(255,255,255,0.06)"/>
<rect x="137.0" y="128.0" width="6" height="24" fill="rgba(255,255,255,0.06)" stroke="rgba(255,255,255,0.06)"/>
<rect x="168.0" y="137.0" width="24" height="6" fill="rgba(255,255,255,0.06)" stroke="rgba(255,255,255,0.06)"/>
<rect x="177.0" y="128.0" width="6" height="24" fill="rgba(255,255,255,0.06)" stroke="rgba(255,255,255,0.06)"/>
<rect x="208.0" y="137.0" width="24" height="6" fill="rgba(255,255,255,0.06)" stroke="rgba(255,255,255,0.06)"/>
<rect x="217.0" y="128.0" width="6" height="24" fill="rgba(255,255,255,0.06)" stroke="rgba(255,255,255,0.06)"/>
<rect x="248.0" y="137.0" width="24" height="6" fill="rgba(255,255,255,0.06)" stroke="rgba(255,255,255,0.06)"/>
<rect x="257.0" y="128.0" width="6" height="24" fill="rgba(255,255,255,0.06)" stroke="rgba(255,255,255,0.06)"/>
<rect x="8.0" y="177.0" width="24" height="6" fill="rgba(255,255,255,0.06)" stroke="rgba(255,255,255,0.06)"/>
<rect x="17.0" y="168.0" width="6" height="24" fill="rgba(255,255,255,0.06)" stroke="rgba(255,255,255,0.06)"/>
<rect x="48.0" y="177.0" width="24" height="6" fill="rgba(255,255,255,0.06)" stroke="rgba(255,255,255,0.06)"/>
<rect x="57.0" y="168.0" width="6" height="24" fill="rgba(255,255,255,0.06)" stroke="rgba(255,255,255,0.06)"/>
<rect x="88.0" y="177.0" width="24" height="6" fill="rgba(255,255,255,0.06)" stroke="rgba(255,255,255,0.06)"/>
<rect x="97.0" y="168.0" width="6" height="24" fill="rgba(255,255,255,0.06)" stroke="rgba(255,255,255,0.06)"/>
<rect x="128.0" y="177.0" width="24" height="6" fill="rgba(255,255,255,0.06)" stroke="rgba(255,255,255,0.06)"/>
<rect x="137.0" y="168.0" width="6" height="24" fill="rgba(255,255,255,0.06)" stroke="rgba(255,255,255,0.06)"/>
<rect x="168.0" y="177.0" width="24" height="6" fill="rgba(255,255,255,0.06)" stroke="rgba(255,255,255,0.06)"/>
<rect x="177.0" y="168.0" width="6" height="24" fill="rgba(255,255,255,0.06)" stroke="rgba(255,255,255,0.06)"/>
<rect x="208.0" y="177.0" width="24" height="6" fill="rgba(255,255,255,0.06)" stroke="rgba(255,255,255,0.06)"/>
<rect x="217.0" y="168.0" width="6" height="24" fill="rgba(255,255,255,0.06)" stroke="rgba(255,255,255,0.06)"/>
<rect x="248.0" y="177.0" width="24" height="6" fill="rgba(255,255,255,0.06)" stroke="rgba(255,255,255,0.06)"/>
<rect x="257.0" y="168.0" width="6" height="24" fill="rgba(255,255,255,0.06)" stroke="rgba(255,255,255,0.06)"/>
<rect x="8.0" y="217.0" width="24" height="6" fill="rgba(255,255,255,0.06)" stroke="rgba(255,255,255,0.06)"/>
<rect x="17.0" y="208.0" width="6" height="24" fill="rgba(255,255,255,0.06)" stroke="rgba(255,255,255,0.06)"/>
<rect x="48.0" y="217.0" width="24" height="6" fill="rgba(255,255,255,0.06)" stroke="rgba(255,255,255,0.06)"/>
<rect x="57.0" y="208.0" width="6" height="24" fill="rgba(255,255,255,0.06)" stroke="rgba(255,255,255,0.06)"/>
<rect x="88.0" y="217.0" width="24" height="6" fill="rgba(255,255,255,0.06)" stroke="rgba(255,255,255,0.06)"/>
<rect x="97.0" y="208.0" width="6" height="24" fill="rgba(255,255,255,0.06)" stroke="rgba(255,255,255,0.06)"/>
<rect x="128.0" y="217.0" width="24" height="6" fill="rgba(255,255,255,0.06)" stroke="rgba(255,255,255,0.06)"/>
<rect x="137.0" y="208.0" width="6" height="24" fill="rgba(255,255,255,0.06)" stroke="rgba(255,255,255,0.06)"/>
<rect x="168.0" y="217.0" width="24" height="6" fill="rgba(255,255,255,0.06)" stroke="rgba(255,255,255,0.06)"/>
<rect x="177.0" y="208.0" width="6" height="24" fill="rgba(255,255,255,0.06)" stroke="rgba(255,255,255,0.06)"/>
<rect x="208.0" y="217.0" width="24" height="6" fill="rgba(255,255,255,0.06)" stroke="rgba(255,255,255,0.06)"/>
<rect x="217.0" y="208.0" width="6" height="24" fill="rgba(255,255,255,0.06)" stroke="rgba(255,255,255,0.06)"/>
<rect x="248.0" y="217.0" width="24" height="6" fill="rgba(255,255,255,0.06)" stroke="rgba(255,255,255,0.06)"/>
<rect x="257.0" y="208.0" width="6" height="24" fill="rgba(255,255,255,0.06)" stroke="rgba(255,255,255,0.06)"/>
<rect x="8.0" y="257.0" width="24" height="6" fill="rgba(255,255,255,0.06)" stroke="rgba(255,255,255,0.06)"/>
<rect x="17.0" y="248.0" width="6" height="24" fill="rgba(255,255,255,0.06)" stroke="rgba(255,255,255,0.06)"/>
<rect x="48.0" y="257.0" width="24" height="6" fill="rgba(255,255,255,0.06)" stroke="rgba(255,255,255,0.06)"/>
<rect x="57.0" y="248.0" width="6" height="24" fill="rgba(255,255,255,0.06)" stroke="rgba(255,255,255,0.06)"/>
<rect x="88.0" y="257.0" width="24" height="6" fill="rgba(255,255,255,0.06)" stroke="rgba(255,255,255,0.06)"/>
<rect x="97.0" y="248.0" width="6" height="24" fill="rgba(255,255,255,0.06)" stroke="rgba(255,255,255,0.06)"/>
<rect x="128.0" y="257.0" width="24" height="6" fill="rgba(255,255,255,0.06)" stroke="rgba(255,255,255,0.06)"/>
<rect x="137.0" y="248.0" width="6" height="24" fill="rgba(255,255,255,0.06)" stroke="rgba(255,255,255,0.06)"/>
<rect x="168.0" y="257.0" width="24" height="6" fill="rgba(255,255,255,0.06)" stroke="rgba(255,255,255,0.06)"/>
<rect x="177.0" y="248.0" width="6" height="24" fill="rgba(255,255,255,0.06)" stroke="rgba(255,255,255,0.06)"/>
<rect x="208.0" y="257.0" width="24" height="6" fill="rgba(255,255,255,0.06)" stroke="rgba(255,255,255,0.06)"/>
<rect x="217.0" y="248.0" width="6" height="24" fill="rgba(255,255,255,0.06)" stroke="rgba(255,255,255,0.06)"/>
<rect x="248.0" y="257.0" width="24" height="6" fill="rgba(255,255,255,0.06)" stroke="rgba(255,255,255,0.06)"/>
<rect x="257.0" y="248.0" width="6" height="24" fill="rgba(255,255,255,0.06)" stroke="rgba(255,255,255,0.06)"/>
</g><!-- Main text -->
  <text x="600" y="140" font-family="'Arial', sans-serif" font-size="80" font-weight="bold" text-anchor="middle" fill="url(#textGradient)">
    PLURES
  </text>
  
  <!-- Tagline -->
  <text x="600" y="190" font-family="'Arial', sans-serif" font-size="28" font-weight="300" text-anchor="middle" fill="rgba(255,255,255,0.9)">
    Building Tools for Modern Development
  </text>
  
  <!-- Decorative line -->
  <line x1="400" y1="210" x2="800" y2="210" stroke="rgba(255,255,255,0.3)" stroke-width="2"/>
</svg>
